# Exported from Figuro at http://www.figuro.io

mtllib 3BarWoodenFence.mtl
o endfence11
v -771.759826660156 79.3123474121094 -28.0726890563965
v 667.440124511719 79.3124237060547 -28.0726890563965
v 667.440124511719 79.3124237060547 -11.7149801254272
v 667.440124511719 4.60012912750244 -11.7149896621704
v 667.440124511719 4.60013103485107 -28.0726890563965
v -771.759826660156 4.60008192062378 -28.0726890563965
v -771.759826660156 79.3123474121094 -11.7149801254272
v -771.759826660156 4.60008096694946 -11.7149896621704
v 651.980529785156 -295.6708984375 10.1185998916626
v 651.980529785156 -295.6708984375 -50.1184387207031
v 651.980529785156 295.670806884766 -50.1185989379883
v 715.760803222656 295.670806884766 -50.1185989379883
v 715.760803222656 -295.6708984375 -50.1184387207031
v 715.760803222656 -295.6708984375 10.1185998916626
v 651.980529785156 295.6708984375 10.1185102462769
v 715.760803222656 295.6708984375 10.1185102462769
v -771.760803222656 260.410705566406 -28.0727195739746
v 667.440124511719 260.410797119141 -28.0727195739746
v 667.440124511719 260.410797119141 -11.7150201797485
v 667.440124511719 185.698501586914 -11.7149696350098
v 667.440124511719 185.698501586914 -28.0726795196533
v -771.759826660156 185.698394775391 -28.0726795196533
v -771.760803222656 260.410705566406 -11.7150201797485
v -771.759826660156 185.698394775391 -11.7149696350098
v -771.759826660156 -101.786102294922 -28.0727005004883
v 667.440124511719 -101.786102294922 -28.0727005004883
v 667.440124511719 -101.786003112793 -11.7150001525879
v 667.440124511719 -176.498306274414 -11.7150096893311
v 667.440124511719 -176.498306274414 -28.0727100372314
v -771.759826660156 -176.498397827148 -28.0727100372314
v -771.759826660156 -101.786003112793 -11.7150001525879
v -771.759826660156 -176.498397827148 -11.7150096893311
# 32 vertices
vt 7.91519689559937 -0.353196978569031
vt 7.91519689559937 -0.353196978569031
vt 0.0448622517287731 -0.35320103168487504
vt 7.91519689559937 -3.71602201461792
vt 7.91519689559937 -0.353196978569031
vt 7.91519689559937 -0.353196978569031
vt 7.91519689559937 -3.71602201461792
vt 7.91519689559937 -3.71602201461792
vt 7.91519689559937 -0.353196978569031
vt 0.0448622517287731 -0.35320103168487504
vt 7.91519689559937 -3.71602201461792
vt 0.0448630601167679 -3.71602582931519
vt 0.0448622517287731 -0.35320103168487504
vt 7.91519689559937 -0.353196978569031
vt 7.91519689559937 -3.71602201461792
vt 7.91519689559937 -0.353196978569031
vt 0.0448622517287731 -0.35320103168487504
vt 0.0448622517287731 -0.35320103168487504
vt 0.0448622517287731 -0.35320103168487504
vt 0.0448622517287731 -0.35320103168487504
vt 0.0448630601167679 -3.71602582931519
vt 0.0448622517287731 -0.35320103168487504
vt 7.91519689559937 -3.71602201461792
vt 7.91519689559937 -0.353196978569031
vt 0.0448622517287731 -0.35320103168487504
vt 0.0448630601167679 -3.71602582931519
vt 7.91519689559937 -3.71602201461792
vt 0.0448630601167679 -3.71602582931519
vt 7.91519689559937 -3.71602201461792
vt 7.91519689559937 -3.71602201461792
vt 0.0448630601167679 -3.71602582931519
vt 0.0448630601167679 -3.71602582931519
vt 7.91519689559937 -3.71602201461792
vt 0.0448622517287731 -0.35320103168487504
vt 0.0448630601167679 -3.71602582931519
vt 0.0448630601167679 -3.71602582931519
vt -0.713047683238983 125.82740020752
vt 9.82447242736816 125.82740020752
vt 9.82447242736816 125.82740020752
vt -0.178261905908585 33.9258804321289
vt 2.45611810684204 32.206859588623
vt -0.178261905908585 32.206859588623
vt -0.178261905908585 33.9258804321289
vt 2.45611810684204 33.9258804321289
vt 2.45611810684204 32.206859588623
vt 2.45611810684204 32.206859588623
vt 2.45611810684204 33.9258804321289
vt 2.45611810684204 33.9258804321289
vt 2.45611810684204 32.206859588623
vt 2.45611810684204 32.206859588623
vt 2.45611810684204 33.9258804321289
vt -0.713047683238983 125.82740020752
vt 9.82447242736816 125.82740020752
vt -0.71304851770401 125.82740020752
vt -0.71304851770401 125.82740020752
vt 9.82447242736816 125.82740020752
vt 9.82447242736816 132.703506469727
vt -0.71304851770401 125.82740020752
vt -0.713047683238983 132.703506469727
vt -0.713047683238983 125.82740020752
vt -0.71304851770401 125.82740020752
vt -0.71304851770401 132.703506469727
vt -0.713047683238983 132.703506469727
vt -0.17826209962368 33.9258804321289
vt 2.45611810684204 33.9258804321289
vt -0.178261905908585 33.9258804321289
vt -0.17826209962368 33.9258804321289
vt 2.45611810684204 33.9258804321289
vt 2.45611810684204 33.9258804321289
vt -0.71304851770401 125.82740020752
vt 9.82447242736816 132.703506469727
vt -0.71304851770401 132.703506469727
vt 7.91519689559937 -3.5865130424499494
vt 7.91519689559937 -3.5865130424499494
vt 0.0448606200516224 -3.5865159034729004
vt 7.91519689559937 -6.94933986663818
vt 7.91519689559937 -3.5865130424499494
vt 7.91519689559937 -3.5865130424499494
vt 7.91519689559937 -6.94933986663818
vt 7.91519689559937 -6.94933986663818
vt 7.91519689559937 -3.5865130424499494
vt 0.0448606200516224 -3.5865159034729004
vt 7.91519689559937 -6.94933986663818
vt 0.0448622517287731 -6.94934415817261
vt 0.0448606200516224 -3.5865159034729004
vt 7.91519689559937 -3.5865130424499494
vt 7.91519689559937 -6.94933986663818
vt 7.91519689559937 -3.5865130424499494
vt 0.0448606200516224 -3.5865159034729004
vt 0.0448606200516224 -3.5865159034729004
vt 0.0448606200516224 -3.5865159034729004
vt 0.0448606200516224 -3.5865159034729004
vt 0.0448622517287731 -6.94934415817261
vt 0.0448606200516224 -3.5865159034729004
vt 7.91519689559937 -6.94933986663818
vt 7.91519689559937 -3.5865130424499494
vt 0.0448606200516224 -3.5865159034729004
vt 0.0448622517287731 -6.94934415817261
vt 7.91519689559937 -6.94933986663818
vt 0.0448622517287731 -6.94934415817261
vt 7.91519689559937 -6.94933986663818
vt 7.91519689559937 -6.94933986663818
vt 0.0448622517287731 -6.94934415817261
vt 0.0448622517287731 -6.94934415817261
vt 7.91519689559937 -6.94933986663818
vt 0.0448606200516224 -3.5865159034729004
vt 0.0448622517287731 -6.94934415817261
vt 0.0448622517287731 -6.94934415817261
vt 7.91519689559937 -2.96603608131409
vt 7.91519689559937 -2.96603608131409
vt 0.0448622517287731 -2.96603798866272
vt 7.91519689559937 -6.3288631439209
vt 7.91519689559937 -2.96603608131409
vt 7.91519689559937 -2.96603608131409
vt 7.91519689559937 -6.3288631439209
vt 7.91519689559937 -6.3288631439209
vt 7.91519689559937 -2.96603608131409
vt 0.0448622517287731 -2.96603798866272
vt 7.91519689559937 -6.3288631439209
vt 0.0448622517287731 -6.32886600494385
vt 0.0448622517287731 -2.96603798866272
vt 7.91519689559937 -2.96603608131409
vt 7.91519689559937 -6.3288631439209
vt 7.91519689559937 -2.96603608131409
vt 0.0448622517287731 -2.96603798866272
vt 0.0448622517287731 -2.96603798866272
vt 0.0448622517287731 -2.96603798866272
vt 0.0448622517287731 -2.96603798866272
vt 0.0448622517287731 -6.32886600494385
vt 0.0448622517287731 -2.96603798866272
vt 7.91519689559937 -6.3288631439209
vt 7.91519689559937 -2.96603608131409
vt 0.0448622517287731 -2.96603798866272
vt 0.0448622517287731 -6.32886600494385
vt 7.91519689559937 -6.3288631439209
vt 0.0448622517287731 -6.32886600494385
vt 7.91519689559937 -6.3288631439209
vt 7.91519689559937 -6.3288631439209
vt 0.0448622517287731 -6.32886600494385
vt 0.0448622517287731 -6.32886600494385
vt 7.91519689559937 -6.3288631439209
vt 0.0448622517287731 -2.96603798866272
vt 0.0448622517287731 -6.32886600494385
vt 0.0448622517287731 -6.32886600494385
# 144 uvs
vn -0.20000002120454358 0.39999999999999947 -0.4
vn 0.4999999867471603 0.24999999999999967 -0.25
vn 0.2499999734943222 0.49999996808844027 0.24999999999999792
vn 0.4000000066926863 -0.20000005105850263 0.3999999766794969
vn 0.2000000135178966 -0.399999999999998 -0.4000000349807499
vn -0.4999999914684844 -0.24999999999999942 -0.25000001457531246
vn -0.40000001060226964 0.19999994894149567 0.3999999999999967
vn -0.24999998310262822 -0.5000000319115686 0.24999995627406071
vn -0.4 -0.3999999696806868 0.1999999999999977
vn -0.25 -0.2500001354692928 -0.4999999999999817
vn -0.5 0.24999993226506484 -0.2500003799681503
vn 0.2 0.39999989162410393 -0.4000006079490401
vn 0.4 -0.40000005418771706 -0.19999999999999268
vn 0.25 -0.24999992420171707 0.4999999999999943
vn -0.2 0.40000006063816435 0.3999993920509407
vn 0.5 0.2500000378988528 0.24999962003183815
vn -0.20000002542833545 0.399997171360008 -0.3999999999999425
vn 0.4999999840966115 0.24999986597145296 -0.24999999999996408
vn 0.2499999681931952 0.500000169131259 0.2499999999999428
vn 0.40000001484316183 -0.19999972939001182 0.3999999999999085
vn 0.2000000296863757 -0.4000002144456509 -0.3999999999999425
vn -0.49999998140330193 -0.25000666951436795 -0.24999999999996408
vn -0.4000000126885663 0.19999504222130765 0.3999999999999085
vn -0.2499999628707051 -0.5000030986116987 0.2499999999999428
vn -0.20000000000000165 0.4000000510511718 -0.400002425331844
vn 0.5 0.25000003190700193 -0.2500015158324022
vn 0.25 0.4999999680792544 0.24999696833518883
vn 0.40000001272272767 -0.20000005105845692 0.3999999999999967
vn 0.2000000254454506 -0.3999999489414752 -0.3999999999999967
vn -0.4999999840965944 -0.24999996808844044 -0.24999999999999795
vn -0.39999999999999836 0.19999994893786685 0.39999878733407285
vn -0.24999996819318268 -0.5000000319115145 0.24999999999999797
# 32 normals
usemtl finpine
f 3/1/3 2/2/2 1/3/1 
f 4/4/4 2/5/2 3/6/3 
f 4/7/4 5/8/5 2/9/2 
f 1/10/1 5/11/5 6/12/6 
f 1/13/1 2/14/2 5/15/5 
f 3/16/3 1/17/1 7/18/7 
f 7/19/7 1/20/1 6/21/6 
f 7/22/7 4/23/4 3/24/3 
f 7/25/7 8/26/8 4/27/4 
f 8/28/8 5/29/5 4/30/4 
f 8/31/8 6/32/6 5/33/5 
f 7/34/7 6/35/6 8/36/8 
f 11/37/11 10/38/10 9/39/9 
f 12/40/12 10/41/10 11/42/11 
f 12/43/12 13/44/13 10/45/10 
f 9/46/9 13/47/13 14/48/14 
f 9/49/9 10/50/10 13/51/13 
f 11/52/11 9/53/9 15/54/15 
f 15/55/15 9/56/9 14/57/14 
f 15/58/15 12/59/12 11/60/11 
f 15/61/15 16/62/16 12/63/12 
f 16/64/16 13/65/13 12/66/12 
f 16/67/16 14/68/14 13/69/13 
f 15/70/15 14/71/14 16/72/16 
f 19/73/19 18/74/18 17/75/17 
f 20/76/20 18/77/18 19/78/19 
f 20/79/20 21/80/21 18/81/18 
f 17/82/17 21/83/21 22/84/22 
f 17/85/17 18/86/18 21/87/21 
f 19/88/19 17/89/17 23/90/23 
f 23/91/23 17/92/17 22/93/22 
f 23/94/23 20/95/20 19/96/19 
f 23/97/23 24/98/24 20/99/20 
f 24/100/24 21/101/21 20/102/20 
f 24/103/24 22/104/22 21/105/21 
f 23/106/23 22/107/22 24/108/24 
f 27/109/27 26/110/26 25/111/25 
f 28/112/28 26/113/26 27/114/27 
f 28/115/28 29/116/29 26/117/26 
f 25/118/25 29/119/29 30/120/30 
f 25/121/25 26/122/26 29/123/29 
f 27/124/27 25/125/25 31/126/31 
f 31/127/31 25/128/25 30/129/30 
f 31/130/31 28/131/28 27/132/27 
f 31/133/31 32/134/32 28/135/28 
f 32/136/32 29/137/29 28/138/28 
f 32/139/32 30/140/30 29/141/29 
f 31/142/31 30/143/30 32/144/32 
# 48 polygons