# Exported from DeleD's Wavefront OBJ Exporter 1.0
# Visit http://www.delgine.com for more information.
mtllib Rock101a.mtl
o user defined2
v -513.008728027344 640.688110351563 137.764602661133
v -913.755798339844 607.461120605469 -124.050498962402
v -898.205871582031 617.073425292969 -56.0682411193848
v -1000.58099365234 517.064086914063 -70.9097290039063
v -1001.41900634766 503.243011474609 -121.133796691895
v -981.443786621094 489.111999511719 -155.913192749023
v -910.758972167969 560.377075195313 -169.479202270508
v -806.193969726563 631.572814941406 -206.191497802734
v -811.45751953125 682.703186035156 -151.33479309082
v -781.869323730469 690.010375976563 -77.1813507080078
v -952.305419921875 194.451797485352 -142.349502563477
v -935.213195800781 193.872100830078 -86.6850891113281
v -774.178527832031 211.974899291992 -94.5539932250977
v -792.399169921875 218.897903442383 -147.97380065918
v -802.257080078125 235.842803955078 -180.983505249023
v -960.151184082031 207.771102905273 -177.248199462891
v -1042.93701171875 195.80110168457 -170.527893066406
v -1069.23498535156 179.908401489258 -142.878402709961
v -1055.23999023438 186.959106445313 -84.1752319335938
v -621.930419921875 662.355529785156 -188.052505493164
v -605.485778808594 679.692321777344 -109.300102233887
v -600.606079101563 610.375610351563 -257.201507568359
v -618.156311035156 220.365097045898 -166.870697021484
v -611.982116699219 213.583694458008 -110.872001647949
v -623.046997070313 239.983901977539 -204.339797973633
v -799.330688476563 524.021423339844 237.434799194336
v -823.482788085938 557.695678710938 131.170700073242
v -674.189514160156 632.27197265625 99.7388763427734
v -659.890930175781 615.487121582031 172.748199462891
v -657.516723632813 598.666015625 226.509704589844
v -787.478210449219 511.051910400391 292.947601318359
v -881.2783203125 491.400207519531 240.759796142578
v -923.299011230469 507.500305175781 185.003997802734
v -957.919372558594 529.724182128906 78.393913269043
v -859.737487792969 602.6884765625 29.4198799133301
v -984.934509277344 525.705017089844 -8.92486190795898
v -720.942016601563 664.665283203125 16.9056491851807
v -837.929077148438 250.915298461914 124.552200317383
v -863.693420410156 222.619995117188 53.886848449707
v -970.9462890625 230.77360534668 65.4412231445313
v -937.188903808594 261.636993408203 139.299102783203
v -894.900085449219 289.739196777344 166.397903442383
v -821.669677734375 288.091705322266 169.680297851563
v -698.213317871094 288.59521484375 147.75129699707
v -705.753295898438 251.540893554688 98.4207229614258
v -722.478820800781 226.831207275391 32.3714599609375
v -901.028015136719 203.701599121094 -19.0433292388916
v -747.859497070313 214.033203125 -33.0480308532715
v -1017.08099365234 205.245498657227 -11.8611097335815
v -563.30908203125 649.956176757813 34.8556709289551
v -556.243408203125 646.512329101563 103.316902160645
v -558.380126953125 636.145080566406 157.889297485352
v -584.054870605469 668.359680175781 -38.5929298400879
v -513.008728027344 657.489501953125 -48.6320381164551
v -582.171997070313 248.546203613281 73.9026107788086
v -590.765625 226.448501586914 10.031060218811
v -578.201782226563 286.203399658203 125.800598144531
v -600.707214355469 214.845596313477 -51.2869606018066
v -817.932312011719 334.235198974609 175.065795898438
v -820.648315429688 378.410491943359 182.457397460938
v -710.85302734375 389.028411865234 196.712203979492
v -705.003723144531 339.618896484375 167.677703857422
v -909.095520019531 323.284790039063 170.44189453125
v -908.35791015625 371.539886474609 154.201705932617
v -961.891479492188 298.661712646484 126.830001831055
v -962.349914550781 347.980895996094 103.302001953125
v -1002.17700195313 269.41259765625 58.0018692016602
v -1006.33898925781 321.174591064453 43.0237617492676
v -963.210083007813 237.128402709961 -182.674606323242
v -965.715576171875 280.122100830078 -178.729507446289
v -1075.38903808594 259.312591552734 -180.52099609375
v -1071.98706054688 213.043395996094 -180.857894897461
v -808.671569824219 265.059387207031 -180.945205688477
v -809.721130371094 309.637512207031 -174.781600952148
v -1110.3759765625 209.291000366211 -143.88020324707
v -1116.18200683594 259.022613525391 -143.717498779297
v -1105.73706054688 272.808502197266 -85.0453262329102
v -1097.55505371094 221.010894775391 -84.4020919799805
v -588.892272949219 415.609191894531 182.629699707031
v -585.110778808594 344.815093994141 154.14599609375
v -632.986877441406 278.496612548828 -207.410797119141
v -629.648681640625 334.001312255859 -205.46549987793
v -1056.18395996094 242.920196533203 -14.5528497695923
v -1062.63598632813 295.146606445313 -21.0810604095459
v -800.617370605469 479.472503662109 288.314788818359
v -819.097290039063 445.828796386719 246.969696044922
v -938.091125488281 458.264312744141 159.132705688477
v -919.92041015625 479.124694824219 210.255294799805
v -666.726196289063 548.471618652344 260.918914794922
v -682.235778808594 484.993713378906 270.316802978516
v -823.430786132813 414.339691162109 209.565399169922
v -700.43212890625 431.493591308594 244.111801147461
v -926.123779296875 417.778198242188 147.697402954102
v -990.284912109375 487.393402099609 120.690902709961
v -1009.04302978516 442.370208740234 85.0032501220703
v -1055.50305175781 417.971710205078 28.858850479126
v -1032.72802734375 473.24951171875 39.0327110290527
v -988.892822265625 395.577606201172 86.604621887207
v -1033.94299316406 368.265411376953 32.0037498474121
v -909.668518066406 470.649108886719 -196.713500976563
v -935.198181152344 385.483703613281 -200.951995849609
v -745.792175292969 449.986511230469 -222.857604980469
v -773.025085449219 546.735412597656 -230.244995117188
v -1040.8740234375 425.284393310547 -171.680892944336
v -1081.69799804688 357.670196533203 -177.810699462891
v -959.705688476563 330.536895751953 -187.996505737305
v -1085.42395019531 305.608703613281 -180.252502441406
v -781.496215820313 372.348388671875 -194.429992675781
v -1092.26403808594 424.617706298828 -127.560699462891
v -1137.98498535156 356.668487548828 -132.212493896484
v -1091.6259765625 439.674713134766 -75.0416564941406
v -1133.72204589844 372.081207275391 -76.7836837768555
v -1133.97497558594 304.776092529297 -139.352401733398
v -1125.07299804688 319.569000244141 -82.1533432006836
v -565.306701660156 594.64697265625 196.265594482422
v -574.712829589844 539.887573242188 217.513198852539
v -583.556274414063 482.209106445313 215.422500610352
v -539.318786621094 473.454895019531 -274.899993896484
v -560.638122558594 542.342895507813 -289.213806152344
v -579.59521484375 403.700103759766 -230.530899047852
v -1069.12097167969 456.248992919922 -20.0954399108887
v -1101.67602539063 393.565704345703 -23.1953907012939
v -1085.7939453125 342.055206298828 -24.4125709533691
v -513.008728027344 669.606384277344 -128.366195678711
v -513.008728027344 615.305114746094 -273.090911865234
v -513.008728027344 650.423522949219 -214.1748046875
v -513.008728027344 647.556030273438 8.83638191223145
v -513.008728027344 647.234924316406 97.2910766601563
v -513.008728027344 602.854919433594 170.783004760742
v -513.008728027344 495.810485839844 181.885299682617
v -513.008728027344 431.882690429688 161.726104736328
v -513.008728027344 364.868988037109 142.514801025391
v -513.008728027344 288.429412841797 110.823196411133
v -513.008728027344 225.250305175781 -15.7412700653076
v -513.008728027344 251.45979309082 64.2031173706055
v -513.008728027344 218.434097290039 -61.2504196166992
v -513.008728027344 216.08659362793 -114.900398254395
v -513.008728027344 285.078887939453 -228.208801269531
v -513.008728027344 242.438293457031 -221.460494995117
v -513.008728027344 221.475997924805 -180.065505981445
v -513.008728027344 348.818695068359 -226.893905639648
v -513.008728027344 415.425903320313 -242.595703125
v -513.008728027344 481.154907226563 -279.117492675781
v -513.008728027344 541.38427734375 -295.965209960938
v -513.008728027344 550.153686523438 186.818801879883
vt 0.40352338552475 2.35930001735687
vt 0.338299304246902 2.54522502422333
vt 0.12501460313797 2.4385370016098
vt 0.168061599135399 2.25458800792694
vt -3.61767101287842 2.63194596767426
vt -3.86286306381226 2.54522502422333
vt -3.75917911529541 2.35930001735687
vt -3.54827308654785 2.45132803916931
vt 3.65311789512634 2.50579595565796
vt 3.55339288711548 2.83847296237946
vt 3.01962900161743 3.13568496704102
vt 2.91325092315674 2.7577600479126
vt -4.03883981704712 2.4385370016098
vt -3.86286306381226 2.54522502422333
vt -3.94157409667969 2.72800898551941
vt -4.12305879592896 2.63270199298859
vt 0.722671926021576 2.98242294788361
vt 0.471448808908463 2.90388000011444
vt 0.821309685707092 2.87158095836639
vt 0.940468013286591 2.91953194141388
vt -4.03409385681152 0.847528502345085
vt -3.86829996109009 0.528551191091537
vt -3.6066370010376 0.277328073978424
vt -3.74187302589417 0.693773806095123
vt -3.94157409667969 2.72800898551941
vt -3.86286306381226 2.54522502422333
vt -3.61767101287842 2.63194596767426
vt -3.66441798210144 2.7900949716568
vt 0.821309685707092 2.87158095836639
vt 0.471448808908463 2.90388000011444
vt 0.332043886184692 2.72800898551941
vt 0.621612071990967 2.7900949716568
vt 3.01962900161743 3.13568496704102
vt 3.55339288711548 2.83847296237946
vt 3.55765199661255 3.18897294998169
vt 3.14919495582581 3.46708106994629
vt 3.05272006988525 2.4544860124588
vt 3.74885010719299 2.29115998744965
vt 3.65311789512634 2.50579595565796
vt 2.91325092315674 2.7577600479126
vt 3.77232599258423 2.09422695636749
vt 3.74885010719299 2.29115998744965
vt 3.05272006988525 2.4544860124588
vt 3.16297292709351 2.20952200889587
vt -4.06591415405273 1.67062848806381
vt -4.26665592193604 1.49828401207924
vt -3.91179299354553 1.47317889332771
vt -3.83376502990723 1.60903590917587
vt 4.44525384902954 2.39323604106903
vt 4.26665592193604 2.65866303443909
vt 4.06591415405273 2.66126704216003
vt 4.22538280487061 2.39714896678925
vt 4.06591415405273 2.66126704216003
vt 3.55339288711548 2.83847296237946
vt 3.65311789512634 2.50579595565796
vt 4.22538280487061 2.39714896678925
vt 3.55765199661255 3.18897294998169
vt 3.55339288711548 2.83847296237946
vt 4.06591415405273 2.66126704216003
vt 3.83376502990723 2.91059398651123
vt 4.23993682861328 2.19378399848938
vt 3.74885010719299 2.29115998744965
vt 3.77232599258423 2.09422695636749
vt 4.20073795318604 2.01294004917145
vt 3.65311789512634 2.50579595565796
vt 3.74885010719299 2.29115998744965
vt 4.23993682861328 2.19378399848938
vt 4.22538280487061 2.39714896678925
vt 0.226569801568985 2.05239295959473
vt -0.0568470694124699 1.94890701770782
vt -0.0463324598968029 1.80174022912979
vt 0.255629807710648 1.90145939588547
vt -0.0823478922247887 2.15291595458984
vt -0.0568470694124699 1.94890701770782
vt 0.226569801568985 2.05239295959473
vt 0.168061599135399 2.25458800792694
vt -0.329695701599121 1.86332380771637
vt -0.0568470694124699 1.94890701770782
vt -0.0823478922247887 2.15291595458984
vt -0.332208305597305 2.06565797328949
vt -3.97297310829163 0.953667540103197
vt -4.12571907043457 0.94315293058753
vt -4.28732395172119 0.670304298400879
vt -4.12203121185303 0.671190500259399
vt 3.15887308120728 2.03538799285889
vt 2.47260499000549 2.08787703514099
vt 2.43377709388733 1.93743711709976
vt 3.13381695747375 1.92126101255417
vt 2.45956492424011 2.30469298362732
vt 2.47260499000549 2.08787703514099
vt 3.15887308120728 2.03538799285889
vt 3.16297292709351 2.20952200889587
vt 2.00394010543823 2.11358904838562
vt 2.47260499000549 2.08787703514099
vt 2.45956492424011 2.30469298362732
vt 2.00394010543823 2.36257302761078
vt 2.47260499000549 2.08787703514099
vt 2.00394010543823 2.11358904838562
vt 2.00394010543823 1.94702458381653
vt 2.43377709388733 1.93743711709976
vt -3.19959902763367 1.96472537517548
vt -3.12741208076477 2.12623000144958
vt -3.59343910217285 1.82130968570709
vt -3.66441798210144 1.62161207199097
vt -3.20565700531006 2.47816598415375
vt -3.21652698516846 2.61851394176483
vt -3.61767101287842 2.63194596767426
vt -3.54827308654785 2.45132803916931
vt -2.73606300354004 2.68552196025848
vt -3.21652698516846 2.61851394176483
vt -3.20565700531006 2.47816598415375
vt -2.77677011489868 2.51964199542999
vt 0.332043886184692 2.72800898551941
vt 0.471448808908463 2.90388000011444
vt 0.152471497654915 2.84863102436066
vt 0.112729899585247 2.63270199298859
vt -3.61767101287842 2.63194596767426
vt -3.21652698516846 2.61851394176483
vt -3.19959902763367 2.7415189743042
vt -3.66441798210144 2.7900949716568
vt -3.07608699798584 2.99629700183868
vt -3.12741208076477 2.87293899059296
vt -2.60439896583557 3.14246702194214
vt -2.56842494010925 3.33853888511658
vt -3.59343910217285 2.87158095836639
vt -3.12741208076477 2.87293899059296
vt -3.07608699798584 2.99629700183868
vt -3.44249296188354 2.91953194141388
vt -3.19959902763367 2.7415189743042
vt -3.21652698516846 2.61851394176483
vt -2.73606300354004 2.68552196025848
vt -2.66498398780823 2.89450705051422
vt -2.60439896583557 3.14246702194214
vt -3.12741208076477 2.87293899059296
vt -3.19959902763367 2.7415189743042
vt -2.66498398780823 2.89450705051422
vt -0.0906069874763489 2.5373660326004
vt -0.0784978121519089 2.78222298622131
vt -0.293131500482559 2.71747899055481
vt -0.299936294555664 2.45344197750092
vt 2.00394010543823 2.62275695800781
vt 2.26404404640198 2.57695400714874
vt 2.10671401023865 2.84943294525146
vt 2.00394010543823 2.87951099872589
vt -3.84739995002747 1.03486274182796
vt -4.17625379562378 1.07849781215191
vt -4.03409385681152 0.847528502345085
vt -3.74187302589417 0.693773806095123
vt -4.26416397094727 1.29313150048256
vt -4.17625379562378 1.07849781215191
vt -3.84739995002747 1.03486274182796
vt -3.90851998329163 1.27699109911919
vt 2.10671401023865 2.84943294525146
vt 2.26404404640198 2.57695400714874
vt 3.05272006988525 2.4544860124588
vt 2.91325092315674 2.7577600479126
vt 3.01962900161743 3.13568496704102
vt 2.18999290466309 3.11852693557739
vt 2.10671401023865 2.84943294525146
vt 2.91325092315674 2.7577600479126
vt 2.00394010543823 2.36257302761078
vt 2.45956492424011 2.30469298362732
vt 2.26404404640198 2.57695400714874
vt 2.00394010543823 2.62275695800781
vt 3.05272006988525 2.4544860124588
vt 2.26404404640198 2.57695400714874
vt 2.45956492424011 2.30469298362732
vt 3.16297292709351 2.20952200889587
vt 0.152471497654915 2.84863102436066
vt -0.0784978121519089 2.78222298622131
vt -0.0906069874763489 2.5373660326004
vt 0.112729899585247 2.63270199298859
vt -2.00394010543823 1.8366202712059
vt -2.34611701965332 2.00469303131104
vt -2.4294159412384 1.73458009958267
vt -2.34611701965332 2.00469303131104
vt -2.00394010543823 1.8366202712059
vt -2.00394010543823 2.0667610168457
vt -2.20042610168457 0.863845005631447
vt -2.00394010543823 1.1899688988924
vt -2.28146409988403 1.15075360238552
vt -2.00394010543823 1.1899688988924
vt -2.20042610168457 0.863845005631447
vt -2.00394010543823 0.965482879430056
vt -4.03883981704712 2.4385370016098
vt -4.24138307571411 2.33615303039551
vt -4.15092182159424 2.15291595458984
vt -3.93101191520691 2.25458800792694
vt -4.30342197418213 2.5373660326004
vt -4.24138307571411 2.33615303039551
vt -4.03883981704712 2.4385370016098
vt -4.12305879592896 2.63270199298859
vt -0.32091149687767 2.24831604957581
vt -0.0953616127371788 2.33615303039551
vt -0.0906069874763489 2.5373660326004
vt -0.299936294555664 2.45344197750092
vt -0.0823478922247887 2.15291595458984
vt -0.0953616127371788 2.33615303039551
vt -0.32091149687767 2.24831604957581
vt -0.332208305597305 2.06565797328949
vt 4.23993682861328 2.19378399848938
vt 4.42959022521973 2.19053196907043
vt 4.44525384902954 2.39323604106903
vt 4.22538280487061 2.39714896678925
vt 4.36008596420288 2.01180696487427
vt 4.42959022521973 2.19053196907043
vt 4.23993682861328 2.19378399848938
vt 4.20073795318604 2.01294004917145
vt -2.60439896583557 3.14246702194214
vt -2.20822906494141 3.32283997535706
vt -2.18117189407349 3.4849419593811
vt -2.56842494010925 3.33853888511658
vt -2.24497199058533 3.10893607139587
vt -2.20822906494141 3.32283997535706
vt -2.60439896583557 3.14246702194214
vt -2.66498398780823 2.89450705051422
vt -0.293131500482559 2.71747899055481
vt -0.498284012079239 2.65866303443909
vt -0.516455113887787 2.39323604106903
vt -0.299936294555664 2.45344197750092
vt -3.91179299354553 1.47317889332771
vt -4.26665592193604 1.49828401207924
vt -4.26416397094727 1.29313150048256
vt -3.90851998329163 1.27699109911919
vt -0.32091149687767 2.24831604957581
vt -0.544345319271088 2.19053196907043
vt -0.561396479606628 2.01180696487427
vt -0.332208305597305 2.06565797328949
vt -0.516455113887787 2.39323604106903
vt -0.544345319271088 2.19053196907043
vt -0.32091149687767 2.24831604957581
vt -0.299936294555664 2.45344197750092
vt -2.00394010543823 3.50268793106079
vt -2.18117189407349 3.4849419593811
vt -2.20822906494141 3.32283997535706
vt -2.00394010543823 3.35490202903748
vt 2.00394010543823 2.87951099872589
vt 2.10671401023865 2.84943294525146
vt 2.18999290466309 3.11852693557739
vt 2.00394010543823 3.11478209495544
vt -2.73606300354004 2.68552196025848
vt -2.27951693534851 2.88362896442413
vt -2.24497199058533 3.10893607139587
vt -2.66498398780823 2.89450705051422
vt 2.34611701965332 3.38427996635437
vt 2.18999290466309 3.11852693557739
vt 3.01962900161743 3.13568496704102
vt 3.14919495582581 3.46708106994629
vt 2.00394010543823 3.11478209495544
vt 2.18999290466309 3.11852693557739
vt 2.34611701965332 3.38427996635437
vt 2.00394010543823 3.40353608131409
vt -2.00394010543823 3.14903807640076
vt -2.24497199058533 3.10893607139587
vt -2.27951693534851 2.88362896442413
vt -2.00394010543823 2.93675994873047
vt -2.00394010543823 3.14903807640076
vt -2.00394010543823 3.35490202903748
vt -2.20822906494141 3.32283997535706
vt -2.24497199058533 3.10893607139587
vt -2.30035996437073 2.62347304821014
vt -2.27951693534851 2.88362896442413
vt -2.73606300354004 2.68552196025848
vt -2.77677011489868 2.51964199542999
vt -2.00394010543823 2.93675994873047
vt -2.27951693534851 2.88362896442413
vt -2.30035996437073 2.62347304821014
vt -2.00394010543823 2.68704199790955
vt -2.7539210319519 2.32663595676422
vt -2.28558897972107 2.34693396091461
vt -2.30035996437073 2.62347304821014
vt -2.77677011489868 2.51964199542999
vt -3.21673011779785 0.487614512443542
vt -3.35835003852844 0.885078601539135
vt -3.84739995002747 1.03486274182796
vt -3.74187302589417 0.693773806095123
vt -3.6066370010376 0.277328073978424
vt -3.12238597869873 0.0725203156471252
vt -3.21673011779785 0.487614512443542
vt -3.74187302589417 0.693773806095123
vt -3.50861692428589 1.21901659667492
vt -3.35835003852844 0.885078601539135
vt -2.81617999076843 0.933962307870388
vt -3.05417704582214 1.3014897108078
vt -3.84739995002747 1.03486274182796
vt -3.35835003852844 0.885078601539135
vt -3.50861692428589 1.21901659667492
vt -3.90851998329163 1.27699109911919
vt -3.21673011779785 0.487614512443542
vt -3.12238597869873 0.0725203156471252
vt -2.57769894599915 0.325202286243439
vt -2.63355302810669 0.610395014286041
vt -3.09530901908875 0.421977281570435
vt -2.41467308998108 0.348161280155182
vt -2.39055490493774 0.566906213760376
vt -3.02413511276245 0.630648493766785
vt -3.07608699798584 -0.144327044487
vt -3.12238597869873 0.0725203156471252
vt -3.6066370010376 0.277328073978424
vt -3.44249296188354 0.0595319867134094
vt -2.57769894599915 0.325202286243439
vt -3.12238597869873 0.0725203156471252
vt -3.07608699798584 -0.144327044487
vt -2.56842494010925 0.115196526050568
vt -2.81617999076843 0.933962307870388
vt -3.35835003852844 0.885078601539135
vt -3.21673011779785 0.487614512443542
vt -2.63355302810669 0.610395014286041
vt -2.92132592201233 0.870906099677086
vt -3.51964092254639 0.92561200261116
vt -3.65317702293396 0.661386400461197
vt -3.02413511276245 0.630648493766785
vt -3.37380194664001 1.21049550175667
vt -3.51964092254639 0.92561200261116
vt -2.92132592201233 0.870906099677086
vt -2.82218289375305 1.12645100057125
vt -3.97297310829163 0.953667540103197
vt -3.51964092254639 0.92561200261116
vt -3.37380194664001 1.21049550175667
vt -3.79275894165039 1.25562980771065
vt -3.65317702293396 0.661386400461197
vt -3.51964092254639 0.92561200261116
vt -3.97297310829163 0.953667540103197
vt -4.12203121185303 0.671190500259399
vt -3.66089391708374 1.54413712024689
vt -3.27315998077393 1.48653200268745
vt -3.20964694023132 1.66281372308731
vt -3.49570298194885 1.64999181032181
vt -3.37380194664001 1.21049550175667
vt -3.27315998077393 1.48653200268745
vt -3.66089391708374 1.54413712024689
vt -3.79275894165039 1.25562980771065
vt -2.75684905052185 1.38445588946342
vt -3.27315998077393 1.48653200268745
vt -3.37380194664001 1.21049550175667
vt -2.82218289375305 1.12645100057125
vt -3.20964694023132 1.66281372308731
vt -3.27315998077393 1.48653200268745
vt -2.75684905052185 1.38445588946342
vt -2.72739601135254 1.57715350389481
vt 3.55765199661255 3.18897294998169
vt 3.56935906410217 3.37289500236511
vt 3.16975593566895 3.66680908203125
vt 3.14919495582581 3.46708106994629
vt -0.473178893327713 2.96579301357269
vt -0.484572291374207 3.37289500236511
vt -0.662028074264526 3.18897294998169
vt -0.609035909175873 2.91059398651123
vt -3.65317702293396 0.661386400461197
vt -3.71994304656982 0.443947315216064
vt -3.09530901908875 0.421977281570435
vt -3.02413511276245 0.630648493766785
vt -3.16975593566895 1.59115147590637
vt -3.56935906410217 1.48457229137421
vt -3.50861692428589 1.21901659667492
vt -3.05417704582214 1.3014897108078
vt 0.947639524936676 2.62275695800781
vt 1.09030294418335 2.87951099872589
vt 1.15611398220062 3.11478209495544
vt 1.0667610168457 3.40353608131409
vt 0.836620271205902 3.54071688652039
vt 0.501430511474609 3.61564993858337
vt 0.189968898892403 3.56831789016724
vt -0.0345171205699444 3.52951598167419
vt -0.631742596626282 2.68704199790955
vt -0.556698381900787 2.4252690076828
vt -0.432903110980988 2.1266770362854
vt -0.250793397426605 1.98226481676102
vt 0.0614893399178982 1.8798840045929
vt 0.239259496331215 1.85325819253922
vt 0.448829710483551 1.84408831596375
vt 0.703380882740021 1.86514061689377
vt 0.865080118179321 1.94702458381653
vt 0.891440570354462 2.11358904838562
vt 0.886304318904877 2.36257302761078
vt -0.219016596674919 3.41044306755066
vt -0.484572291374207 3.37289500236511
vt -0.473178893327713 2.96579301357269
vt -0.276991099119186 3.01978206634521
vt -0.380043298006058 3.5282609462738
vt -0.53814297914505 3.50268793106079
vt -0.667121112346649 3.35490202903748
vt -0.729760885238647 3.14903807640076
vt -0.710489511489868 2.93675994873047
vt -0.631742596626282 2.68704199790955
vt 0.886304318904877 2.36257302761078
vt 0.947639524936676 2.62275695800781
vt -0.0345171205699444 3.52951598167419
vt -3.09530901908875 0.421977281570435
vt -3.71994304656982 0.443947315216064
vt -3.75059103965759 0.307624220848083
vt -3.13381695747375 0.293033182621002
vt -2.39055490493774 0.566906213760376
vt -2.41467308998108 0.348161280155182
vt -2.00394010543823 0.296619117259979
vt -2.00394010543823 0.551170289516449
vt -2.00394010543823 1.8366202712059
vt -2.4294159412384 1.73458009958267
vt -2.36517906188965 1.4269534945488
vt -2.00394010543823 1.50143051147461
vt -2.43377709388733 0.201797723770142
vt -2.41467308998108 0.348161280155182
vt -3.09530901908875 0.421977281570435
vt -3.13381695747375 0.293033182621002
vt -2.00394010543823 0.296619117259979
vt -2.41467308998108 0.348161280155182
vt -2.43377709388733 0.201797723770142
vt -2.00394010543823 0.134919881820679
vt -4.17669916152954 0.44188117980957
vt -3.71994304656982 0.443947315216064
vt -3.65317702293396 0.661386400461197
vt -4.12203121185303 0.671190500259399
vt -3.75059103965759 0.307624220848083
vt -3.71994304656982 0.443947315216064
vt -4.17669916152954 0.44188117980957
vt -4.07397317886353 0.333875417709351
vt -3.16975593566895 1.59115147590637
vt -2.4294159412384 1.73458009958267
vt -2.34611701965332 2.00469303131104
vt -3.14919495582581 1.80543547868729
vt -2.36517906188965 1.4269534945488
vt -2.4294159412384 1.73458009958267
vt -3.16975593566895 1.59115147590637
vt -3.05417704582214 1.3014897108078
vt 0.226569801568985 2.05239295959473
vt 0.495429694652557 2.16664695739746
vt 0.40352338552475 2.35930001735687
vt 0.168061599135399 2.25458800792694
vt 0.544137120246887 2.02201998233795
vt 0.495429694652557 2.16664695739746
vt 0.226569801568985 2.05239295959473
vt 0.255629807710648 1.90145939588547
vt 4.18744897842407 1.83220082521439
vt 3.76253890991211 1.92628282308578
vt 3.75059103965759 1.81160587072372
vt 4.07397317886353 1.76484811306
vt 3.77232599258423 2.09422695636749
vt 3.76253890991211 1.92628282308578
vt 4.18744897842407 1.83220082521439
vt 4.20073795318604 2.01294004917145
vt -3.55115389823914 2.26283097267151
vt -3.19504809379578 2.30560600757599
vt -3.20565700531006 2.47816598415375
vt -3.54827308654785 2.45132803916931
vt -3.20964694023132 2.12535798549652
vt -3.19504809379578 2.30560600757599
vt -3.55115389823914 2.26283097267151
vt -3.49570298194885 2.13179397583008
vt -3.55115389823914 2.26283097267151
vt -3.75738906860352 2.16664695739746
vt -3.66089391708374 2.02201998233795
vt -3.49570298194885 2.13179397583008
vt 0.40352338552475 2.35930001735687
vt 0.495429694652557 2.16664695739746
vt 0.66578871011734 2.26283097267151
vt 0.602350413799286 2.45132803916931
vt 3.75059103965759 1.81160587072372
vt 3.76253890991211 1.92628282308578
vt 3.15887308120728 2.03538799285889
vt 3.13381695747375 1.92126101255417
vt -2.00394010543823 2.68704199790955
vt -2.30035996437073 2.62347304821014
vt -2.28558897972107 2.34693396091461
vt -2.00394010543823 2.4252690076828
vt 4.18744897842407 1.83220082521439
vt 4.33740615844727 1.81754302978516
vt 4.36008596420288 2.01180696487427
vt 4.20073795318604 2.01294004917145
vt -2.25860095024109 2.11798202991486
vt -2.28558897972107 2.34693396091461
vt -2.7539210319519 2.32663595676422
vt -2.72739601135254 2.1273250579834
vt -2.00394010543823 2.4252690076828
vt -2.28558897972107 2.34693396091461
vt -2.25860095024109 2.11798202991486
vt -2.00394010543823 2.1266770362854
vt -0.561396479606628 2.01180696487427
vt -0.562031984329224 1.81754302978516
vt -0.329695701599121 1.86332380771637
vt -0.332208305597305 2.06565797328949
vt 3.15887308120728 2.03538799285889
vt 3.76253890991211 1.92628282308578
vt 3.77232599258423 2.09422695636749
vt 3.16297292709351 2.20952200889587
vt -4.17669916152954 0.44188117980957
vt -4.33740615844727 0.437968015670776
vt -4.18744897842407 0.293523788452148
vt -4.07397317886353 0.333875417709351
vt -4.28732395172119 0.670304298400879
vt -4.33740615844727 0.437968015670776
vt -4.17669916152954 0.44188117980957
vt -4.12203121185303 0.671190500259399
vt -2.81617999076843 0.933962307870388
vt -2.28146409988403 1.15075360238552
vt -2.36517906188965 1.4269534945488
vt -3.05417704582214 1.3014897108078
vt -2.20042610168457 0.863845005631447
vt -2.28146409988403 1.15075360238552
vt -2.81617999076843 0.933962307870388
vt -2.63355302810669 0.610395014286041
vt -2.30767798423767 1.03918382897973
vt -2.27410888671875 1.28868210315704
vt -2.75684905052185 1.38445588946342
vt -2.82218289375305 1.12645100057125
vt -2.00394010543823 1.50143051147461
vt -2.36517906188965 1.4269534945488
vt -2.28146409988403 1.15075360238552
vt -2.00394010543823 1.1899688988924
vt -2.00394010543823 0.619956701993942
vt -2.17282605171204 0.596418410539627
vt -2.18117189407349 0.383244872093201
vt -2.00394010543823 0.46185702085495
vt -2.00394010543823 0.965482879430056
vt -2.20042610168457 0.863845005631447
vt -2.17282605171204 0.596418410539627
vt -2.00394010543823 0.619956701993942
vt -2.57769894599915 0.325202286243439
vt -2.17282605171204 0.596418410539627
vt -2.20042610168457 0.863845005631447
vt -2.63355302810669 0.610395014286041
vt -2.18117189407349 0.383244872093201
vt -2.17282605171204 0.596418410539627
vt -2.57769894599915 0.325202286243439
vt -2.56842494010925 0.115196526050568
vt -2.75684905052185 1.38445588946342
vt -2.27410888671875 1.28868210315704
vt -2.25860095024109 1.49140858650208
vt -2.72739601135254 1.57715350389481
vt -2.92132592201233 0.870906099677086
vt -2.34651303291321 0.799660295248032
vt -2.30767798423767 1.03918382897973
vt -2.82218289375305 1.12645100057125
vt -2.39055490493774 0.566906213760376
vt -2.34651303291321 0.799660295248032
vt -2.92132592201233 0.870906099677086
vt -3.02413511276245 0.630648493766785
vt -2.7539210319519 2.32663595676422
vt -3.19504809379578 2.30560600757599
vt -3.20964694023132 2.12535798549652
vt -2.72739601135254 2.1273250579834
vt -3.20565700531006 2.47816598415375
vt -3.19504809379578 2.30560600757599
vt -2.7539210319519 2.32663595676422
vt -2.77677011489868 2.51964199542999
vt -2.00394010543823 1.25079339742661
vt -2.27410888671875 1.28868210315704
vt -2.30767798423767 1.03918382897973
vt -2.00394010543823 0.938510660082102
vt -2.00394010543823 1.43290311098099
vt -2.25860095024109 1.49140858650208
vt -2.27410888671875 1.28868210315704
vt -2.00394010543823 1.25079339742661
vt -2.00394010543823 0.760740503668785
vt -2.34651303291321 0.799660295248032
vt -2.39055490493774 0.566906213760376
vt -2.00394010543823 0.551170289516449
vt -2.00394010543823 0.938510660082102
vt -2.30767798423767 1.03918382897973
vt -2.34651303291321 0.799660295248032
vt -2.00394010543823 0.760740503668785
vn -0.754918456077576 0.0186542551964521 0.655553460121155
vn -0.67465341091156 -0.230527386069298 0.701213181018829
vn -0.682627856731415 -0.240667626261711 0.689998805522919
vn -0.77211457490921 -0.0695573091506958 0.631665110588074
vn -0.558199286460876 -0.3250353038311 0.763390958309174
vn -0.67465341091156 -0.230527386069298 0.701213181018829
vn -0.754918456077576 0.0186542551964521 0.655553460121155
vn -0.516707241535187 -0.0224595479667187 0.855867505073547
vn -0.115171305835247 -0.060495600104332 -0.991501748561859
vn -0.287238508462906 0.180390208959579 -0.940719604492188
vn -0.259058743715286 0.0537809059023857 -0.964363098144531
vn -0.135682091116905 -0.226691633462906 -0.964469432830811
vn -0.682627856731415 -0.240667626261711 0.689998805522919
vn -0.67465341091156 -0.230527386069298 0.701213181018829
vn -0.729268014431 -0.224467799067497 0.64636093378067
vn -0.782735884189606 -0.0130547266453505 0.622217059135437
vn -0.490873545408249 0.769274294376373 0.408974558115005
vn -0.788962662220001 0.250659793615341 0.560988068580627
vn -0.644238770008087 -0.205367684364319 0.736736297607422
vn -0.56499171257019 0.461239248514175 0.68413645029068
vn -0.769852161407471 0.510463714599609 0.383085429668427
vn -0.788962662220001 0.250659793615341 0.560988068580627
vn -0.490873545408249 0.769274294376373 0.408974558115005
vn -0.504020094871521 0.817442297935486 0.278840333223343
vn -0.729268014431 -0.224467799067497 0.64636093378067
vn -0.67465341091156 -0.230527386069298 0.701213181018829
vn -0.558199286460876 -0.3250353038311 0.763390958309174
vn -0.571428894996643 -0.492315739393234 0.656577587127686
vn -0.644238770008087 -0.205367684364319 0.736736297607422
vn -0.788962662220001 0.250659793615341 0.560988068580627
vn -0.729268014431 -0.224467799067497 0.64636093378067
vn -0.571428894996643 -0.492315739393234 0.656577587127686
vn -0.259058743715286 0.0537809059023857 -0.964363098144531
vn -0.287238508462906 0.180390208959579 -0.940719604492188
vn -0.507475733757019 0.423613369464874 -0.750346720218658
vn -0.333929270505905 0.463462710380554 -0.820788383483887
vn -0.0542661063373089 -0.298386663198471 -0.952901065349579
vn -0.0107929846271873 -0.183607652783394 -0.982940435409546
vn -0.115171305835247 -0.060495600104332 -0.991501748561859
vn -0.135682091116905 -0.226691633462906 -0.964469432830811
vn 0.00722345896065235 -0.0485856756567955 -0.998792886734009
vn -0.0107929846271873 -0.183607652783394 -0.982940435409546
vn -0.0542661063373089 -0.298386663198471 -0.952901065349579
vn -0.0645627528429031 -0.0789136439561844 -0.994788527488708
vn -0.43807527422905 0.414590060710907 -0.79762464761734
vn -0.669996321201324 0.615942001342773 -0.41439163684845
vn -0.650560915470123 0.669101297855377 -0.359268546104431
vn -0.51990419626236 0.520502746105194 -0.677330493927002
vn -0.873580694198608 0.260554105043411 -0.411057502031326
vn -0.669996321201324 0.615942001342773 -0.41439163684845
vn -0.43807527422905 0.414590060710907 -0.79762464761734
vn -0.402761220932007 0.153323158621788 -0.902372062206268
vn -0.43807527422905 0.414590060710907 -0.79762464761734
vn -0.287238508462906 0.180390208959579 -0.940719604492188
vn -0.115171305835247 -0.060495600104332 -0.991501748561859
vn -0.402761220932007 0.153323158621788 -0.902372062206268
vn -0.507475733757019 0.423613369464874 -0.750346720218658
vn -0.287238508462906 0.180390208959579 -0.940719604492188
vn -0.43807527422905 0.414590060710907 -0.79762464761734
vn -0.51990419626236 0.520502746105194 -0.677330493927002
vn -0.367609143257141 -0.0670585781335831 -0.927559614181519
vn -0.0107929846271873 -0.183607652783394 -0.982940435409546
vn 0.00722345896065235 -0.0485856756567955 -0.998792886734009
vn -0.359720557928085 -0.0709943622350693 -0.930355310440063
vn -0.115171305835247 -0.060495600104332 -0.991501748561859
vn -0.0107929846271873 -0.183607652783394 -0.982940435409546
vn -0.367609143257141 -0.0670585781335831 -0.927559614181519
vn -0.402761220932007 0.153323158621788 -0.902372062206268
vn -0.786431312561035 -0.183939814567566 0.589654088020325
vn -0.742353975772858 -0.307550400495529 0.595250606536865
vn -0.327128440141678 -0.841379582881927 0.430194497108459
vn -0.391834914684296 -0.768561363220215 0.505745828151703
vn -0.761855483055115 -0.154160007834435 0.629135072231293
vn -0.742353975772858 -0.307550400495529 0.595250606536865
vn -0.786431312561035 -0.183939814567566 0.589654088020325
vn -0.77211457490921 -0.0695573091506958 0.631665110588074
vn -0.799709856510162 -0.436149299144745 0.412598967552185
vn -0.742353975772858 -0.307550400495529 0.595250606536865
vn -0.761855483055115 -0.154160007834435 0.629135072231293
vn -0.878045260906219 -0.235026970505714 0.416892021894455
vn -0.327128440141678 -0.841379582881927 0.430194497108459
vn -0.742353975772858 -0.307550400495529 0.595250606536865
vn -0.799709856510162 -0.436149299144745 0.412598967552185
vn -0.285144656896591 -0.921078562736511 0.265154242515564
vn -0.0742565169930458 0.00783894583582878 -0.997208416461945
vn -0.1595798432827 -0.0248358454555273 -0.986872553825378
vn -0.108031578361988 -0.566675901412964 -0.816827833652496
vn -0.00882774125784636 -0.561764717102051 -0.827250063419342
vn -0.156486123800278 -0.0927004814147949 -0.983320236206055
vn -0.1595798432827 -0.0248358454555273 -0.986872553825378
vn -0.0742565169930458 0.00783894583582878 -0.997208416461945
vn -0.0645627528429031 -0.0789136439561844 -0.994788527488708
vn 0.32097139954567 -0.0508935712277889 -0.945720434188843
vn -0.1595798432827 -0.0248358454555273 -0.986872553825378
vn -0.156486123800278 -0.0927004814147949 -0.983320236206055
vn 0.651636838912964 -0.0790023878216743 -0.754405677318573
vn -0.1595798432827 -0.0248358454555273 -0.986872553825378
vn 0.32097139954567 -0.0508935712277889 -0.945720434188843
vn 0.411067187786102 -0.531023800373077 -0.74097067117691
vn -0.108031578361988 -0.566675901412964 -0.816827833652496
vn -0.22094090282917 -0.569803774356842 0.791522979736328
vn -0.18504336476326 -0.237889334559441 0.953502833843231
vn -0.644238770008087 -0.205367684364319 0.736736297607422
vn -0.571428894996643 -0.492315739393234 0.656577587127686
vn -0.175526097416878 -0.336804687976837 0.925069391727448
vn -0.265062391757965 -0.544778108596802 0.795587003231049
vn -0.558199286460876 -0.3250353038311 0.763390958309174
vn -0.516707241535187 -0.0224595479667187 0.855867505073547
vn 0.169877380132675 -0.567408323287964 0.805723011493683
vn -0.265062391757965 -0.544778108596802 0.795587003231049
vn -0.175526097416878 -0.336804687976837 0.925069391727448
vn 0.104310251772404 -0.526102840900421 0.843999564647675
vn -0.729268014431 -0.224467799067497 0.64636093378067
vn -0.788962662220001 0.250659793615341 0.560988068580627
vn -0.769852161407471 0.510463714599609 0.383085429668427
vn -0.782735884189606 -0.0130547266453505 0.622217059135437
vn -0.558199286460876 -0.3250353038311 0.763390958309174
vn -0.265062391757965 -0.544778108596802 0.795587003231049
vn -0.22094090282917 -0.569803774356842 0.791522979736328
vn -0.571428894996643 -0.492315739393234 0.656577587127686
vn -0.334349393844604 0.582842946052551 0.740610957145691
vn -0.18504336476326 -0.237889334559441 0.953502833843231
vn 0.274893313646317 0.173753798007965 0.945644438266754
vn -0.0434975139796734 0.765649676322937 0.641785383224487
vn -0.644238770008087 -0.205367684364319 0.736736297607422
vn -0.18504336476326 -0.237889334559441 0.953502833843231
vn -0.334349393844604 0.582842946052551 0.740610957145691
vn -0.56499171257019 0.461239248514175 0.68413645029068
vn -0.22094090282917 -0.569803774356842 0.791522979736328
vn -0.265062391757965 -0.544778108596802 0.795587003231049
vn 0.169877380132675 -0.567408323287964 0.805723011493683
vn 0.263516813516617 -0.300263285636902 0.916733741760254
vn 0.274893313646317 0.173753798007965 0.945644438266754
vn -0.18504336476326 -0.237889334559441 0.953502833843231
vn -0.22094090282917 -0.569803774356842 0.791522979736328
vn 0.263516813516617 -0.300263285636902 0.916733741760254
vn -0.832263171672821 0.093119353055954 0.546504080295563
vn -0.762339234352112 0.597850620746613 0.247817426919937
vn -0.758899331092834 0.651197493076324 -0.00370085914619267
vn -0.95235002040863 0.182986542582512 0.244018971920013
vn 0.677236616611481 -0.275623589754105 -0.682189285755157
vn -0.117643363773823 -0.342527061700821 -0.932113349437714
vn -0.140400215983391 -0.334711700677872 -0.93180239200592
vn 0.389257401227951 -0.351632177829742 -0.85137152671814
vn -0.598257303237915 0.774909973144531 0.203967407345772
vn -0.762339234352112 0.597850620746613 0.247817426919937
vn -0.769852161407471 0.510463714599609 0.383085429668427
vn -0.504020094871521 0.817442297935486 0.278840333223343
vn -0.758899331092834 0.651197493076324 -0.00370085914619267
vn -0.762339234352112 0.597850620746613 0.247817426919937
vn -0.598257303237915 0.774909973144531 0.203967407345772
vn -0.669062316417694 0.742995619773865 0.0176921524107456
vn -0.140400215983391 -0.334711700677872 -0.93180239200592
vn -0.117643363773823 -0.342527061700821 -0.932113349437714
vn -0.0542661063373089 -0.298386663198471 -0.952901065349579
vn -0.135682091116905 -0.226691633462906 -0.964469432830811
vn -0.259058743715286 0.0537809059023857 -0.964363098144531
vn -0.19713369011879 0.0262921489775181 -0.980024039745331
vn -0.140400215983391 -0.334711700677872 -0.93180239200592
vn -0.135682091116905 -0.226691633462906 -0.964469432830811
vn 0.651636838912964 -0.0790023878216743 -0.754405677318573
vn -0.156486123800278 -0.0927004814147949 -0.983320236206055
vn -0.117643363773823 -0.342527061700821 -0.932113349437714
vn 0.677236616611481 -0.275623589754105 -0.682189285755157
vn -0.0542661063373089 -0.298386663198471 -0.952901065349579
vn -0.117643363773823 -0.342527061700821 -0.932113349437714
vn -0.156486123800278 -0.0927004814147949 -0.983320236206055
vn -0.0645627528429031 -0.0789136439561844 -0.994788527488708
vn -0.769852161407471 0.510463714599609 0.383085429668427
vn -0.762339234352112 0.597850620746613 0.247817426919937
vn -0.832263171672821 0.093119353055954 0.546504080295563
vn -0.782735884189606 -0.0130547266453505 0.622217059135437
vn 0.280029386281967 0.854173302650452 -0.438145667314529
vn -0.14011238515377 0.622979581356049 -0.769587516784668
vn -0.00445151701569557 0.904538333415985 -0.426369100809097
vn -0.14011238515377 0.622979581356049 -0.769587516784668
vn 0.280029386281967 0.854173302650452 -0.438145667314529
vn 0.350829303264618 0.58866935968399 -0.72827684879303
vn 0.0541155077517033 0.984410285949707 0.167355567216873
vn 0.441427499055862 0.884800314903259 0.149231553077698
vn 0.113407142460346 0.973459005355835 0.198787212371826
vn 0.441427499055862 0.884800314903259 0.149231553077698
vn 0.0541155077517033 0.984410285949707 0.167355567216873
vn 0.736217617988586 0.673585116863251 0.0653196796774864
vn -0.682627856731415 -0.240667626261711 0.689998805522919
vn -0.710340321063995 -0.258303076028824 0.654749035835266
vn -0.761855483055115 -0.154160007834435 0.629135072231293
vn -0.77211457490921 -0.0695573091506958 0.631665110588074
vn -0.832263171672821 0.093119353055954 0.546504080295563
vn -0.710340321063995 -0.258303076028824 0.654749035835266
vn -0.682627856731415 -0.240667626261711 0.689998805522919
vn -0.782735884189606 -0.0130547266453505 0.622217059135437
vn -0.870230674743652 -0.273464530706406 0.409775257110596
vn -0.710340321063995 -0.258303076028824 0.654749035835266
vn -0.832263171672821 0.093119353055954 0.546504080295563
vn -0.95235002040863 0.182986542582512 0.244018971920013
vn -0.761855483055115 -0.154160007834435 0.629135072231293
vn -0.710340321063995 -0.258303076028824 0.654749035835266
vn -0.870230674743652 -0.273464530706406 0.409775257110596
vn -0.878045260906219 -0.235026970505714 0.416892021894455
vn -0.367609143257141 -0.0670585781335831 -0.927559614181519
vn -0.927315175533295 -0.177326917648315 -0.329608529806137
vn -0.873580694198608 0.260554105043411 -0.411057502031326
vn -0.402761220932007 0.153323158621788 -0.902372062206268
vn -0.930814027786255 -0.2130156904459 -0.297001004219055
vn -0.927315175533295 -0.177326917648315 -0.329608529806137
vn -0.367609143257141 -0.0670585781335831 -0.927559614181519
vn -0.359720557928085 -0.0709943622350693 -0.930355310440063
vn 0.274893313646317 0.173753798007965 0.945644438266754
vn 0.349067360162735 0.413604974746704 0.840882182121277
vn 0.100066222250462 0.848979532718658 0.518864572048187
vn -0.0434975139796734 0.765649676322937 0.641785383224487
vn 0.442883938550949 -0.000561335415113717 0.896578669548035
vn 0.349067360162735 0.413604974746704 0.840882182121277
vn 0.274893313646317 0.173753798007965 0.945644438266754
vn 0.263516813516617 -0.300263285636902 0.916733741760254
vn -0.758899331092834 0.651197493076324 -0.00370085914619267
vn -0.669996321201324 0.615942001342773 -0.41439163684845
vn -0.873580694198608 0.260554105043411 -0.411057502031326
vn -0.95235002040863 0.182986542582512 0.244018971920013
vn -0.650560915470123 0.669101297855377 -0.359268546104431
vn -0.669996321201324 0.615942001342773 -0.41439163684845
vn -0.758899331092834 0.651197493076324 -0.00370085914619267
vn -0.669062316417694 0.742995619773865 0.0176921524107456
vn -0.870230674743652 -0.273464530706406 0.409775257110596
vn -0.927315175533295 -0.177326917648315 -0.329608529806137
vn -0.930814027786255 -0.2130156904459 -0.297001004219055
vn -0.878045260906219 -0.235026970505714 0.416892021894455
vn -0.873580694198608 0.260554105043411 -0.411057502031326
vn -0.927315175533295 -0.177326917648315 -0.329608529806137
vn -0.870230674743652 -0.273464530706406 0.409775257110596
vn -0.95235002040863 0.182986542582512 0.244018971920013
vn 0.559346258640289 0.723621010780334 0.404356688261032
vn 0.100066222250462 0.848979532718658 0.518864572048187
vn 0.349067360162735 0.413604974746704 0.840882182121277
vn 0.665783822536469 0.365736126899719 0.650360643863678
vn 0.389257401227951 -0.351632177829742 -0.85137152671814
vn -0.140400215983391 -0.334711700677872 -0.93180239200592
vn -0.19713369011879 0.0262921489775181 -0.980024039745331
vn 0.352721184492111 0.0311769284307957 -0.935208916664124
vn 0.169877380132675 -0.567408323287964 0.805723011493683
vn 0.411177635192871 -0.347338795661926 0.842786252498627
vn 0.442883938550949 -0.000561335415113717 0.896578669548035
vn 0.263516813516617 -0.300263285636902 0.916733741760254
vn -0.14011238515377 0.622979581356049 -0.769587516784668
vn -0.19713369011879 0.0262921489775181 -0.980024039745331
vn -0.259058743715286 0.0537809059023857 -0.964363098144531
vn -0.333929270505905 0.463462710380554 -0.820788383483887
vn 0.352721184492111 0.0311769284307957 -0.935208916664124
vn -0.19713369011879 0.0262921489775181 -0.980024039745331
vn -0.14011238515377 0.622979581356049 -0.769587516784668
vn 0.350829303264618 0.58866935968399 -0.72827684879303
vn 0.718664228916168 0.0704107731580734 0.691783249378204
vn 0.442883938550949 -0.000561335415113717 0.896578669548035
vn 0.411177635192871 -0.347338795661926 0.842786252498627
vn 0.71526163816452 -0.175636067986488 0.676426529884338
vn 0.718664228916168 0.0704107731580734 0.691783249378204
vn 0.665783822536469 0.365736126899719 0.650360643863678
vn 0.349067360162735 0.413604974746704 0.840882182121277
vn 0.442883938550949 -0.000561335415113717 0.896578669548035
vn 0.289578527212143 -0.423402458429337 0.858414053916931
vn 0.411177635192871 -0.347338795661926 0.842786252498627
vn 0.169877380132675 -0.567408323287964 0.805723011493683
vn 0.104310251772404 -0.526102840900421 0.843999564647675
vn 0.71526163816452 -0.175636067986488 0.676426529884338
vn 0.411177635192871 -0.347338795661926 0.842786252498627
vn 0.289578527212143 -0.423402458429337 0.858414053916931
vn 0.816907167434692 -0.204672008752823 0.539232790470123
vn 0.10522436350584 -0.353973656892776 0.92931717634201
vn 0.202369123697281 -0.374085664749146 0.90504515171051
vn 0.289578527212143 -0.423402458429337 0.858414053916931
vn 0.104310251772404 -0.526102840900421 0.843999564647675
vn -0.361025720834732 0.857760190963745 0.365934371948242
vn -0.450507014989853 0.811481475830078 0.372211247682571
vn -0.598257303237915 0.774909973144531 0.203967407345772
vn -0.504020094871521 0.817442297935486 0.278840333223343
vn -0.490873545408249 0.769274294376373 0.408974558115005
vn -0.357906132936478 0.873642265796661 0.329624474048615
vn -0.361025720834732 0.857760190963745 0.365934371948242
vn -0.504020094871521 0.817442297935486 0.278840333223343
vn -0.588177740573883 0.788658797740936 0.179064512252808
vn -0.450507014989853 0.811481475830078 0.372211247682571
vn -0.147746711969376 0.925537943840027 0.348640978336334
vn -0.216992691159248 0.96767246723175 0.128546237945557
vn -0.598257303237915 0.774909973144531 0.203967407345772
vn -0.450507014989853 0.811481475830078 0.372211247682571
vn -0.588177740573883 0.788658797740936 0.179064512252808
vn -0.669062316417694 0.742995619773865 0.0176921524107456
vn -0.361025720834732 0.857760190963745 0.365934371948242
vn -0.357906132936478 0.873642265796661 0.329624474048615
vn -0.278139859437943 0.925572216510773 0.256815493106842
vn -0.19662681221962 0.926303684711456 0.321402043104172
vn 0.0551852807402611 -0.95706844329834 -0.28456038236618
vn -0.0213758405297995 -0.957478702068329 -0.287710964679718
vn 0.012667728587985 -0.998997509479523 -0.0429348945617676
vn 0.0567924603819847 -0.997575879096985 -0.0402112677693367
vn -0.334349393844604 0.582842946052551 0.740610957145691
vn -0.357906132936478 0.873642265796661 0.329624474048615
vn -0.490873545408249 0.769274294376373 0.408974558115005
vn -0.56499171257019 0.461239248514175 0.68413645029068
vn -0.278139859437943 0.925572216510773 0.256815493106842
vn -0.357906132936478 0.873642265796661 0.329624474048615
vn -0.334349393844604 0.582842946052551 0.740610957145691
vn -0.0434975139796734 0.765649676322937 0.641785383224487
vn -0.147746711969376 0.925537943840027 0.348640978336334
vn -0.450507014989853 0.811481475830078 0.372211247682571
vn -0.361025720834732 0.857760190963745 0.365934371948242
vn -0.19662681221962 0.926303684711456 0.321402043104172
vn 0.0509985610842705 -0.992428064346313 0.111739031970501
vn 0.0446312613785267 -0.982764899730682 0.179391369223595
vn 0.0854339972138405 -0.995601177215576 0.0384620353579521
vn 0.0567924603819847 -0.997575879096985 -0.0402112677693367
vn 0.0241052843630314 -0.952050745487213 0.304989010095596
vn 0.0446312613785267 -0.982764899730682 0.179391369223595
vn 0.0509985610842705 -0.992428064346313 0.111739031970501
vn 0.0560273490846157 -0.9635169506073 0.261717617511749
vn -0.327128440141678 -0.841379582881927 0.430194497108459
vn 0.0446312613785267 -0.982764899730682 0.179391369223595
vn 0.0241052843630314 -0.952050745487213 0.304989010095596
vn -0.391834914684296 -0.768561363220215 0.505745828151703
vn 0.0854339972138405 -0.995601177215576 0.0384620353579521
vn 0.0446312613785267 -0.982764899730682 0.179391369223595
vn -0.327128440141678 -0.841379582881927 0.430194497108459
vn -0.285144656896591 -0.921078562736511 0.265154242515564
vn -0.363324075937271 -0.629237651824951 0.687062978744507
vn 0.0377772524952888 -0.860686004161835 0.507732629776001
vn 0.0512164495885372 -0.50775808095932 0.85997599363327
vn -0.204655289649963 -0.378034085035324 0.90288782119751
vn 0.0241052843630314 -0.952050745487213 0.304989010095596
vn 0.0377772524952888 -0.860686004161835 0.507732629776001
vn -0.363324075937271 -0.629237651824951 0.687062978744507
vn -0.391834914684296 -0.768561363220215 0.505745828151703
vn 0.0841935575008392 -0.879909634590149 0.467622131109238
vn 0.0377772524952888 -0.860686004161835 0.507732629776001
vn 0.0241052843630314 -0.952050745487213 0.304989010095596
vn 0.0560273490846157 -0.9635169506073 0.261717617511749
vn 0.0512164495885372 -0.50775808095932 0.85997599363327
vn 0.0377772524952888 -0.860686004161835 0.507732629776001
vn 0.0841935575008392 -0.879909634590149 0.467622131109238
vn 0.124330319464207 -0.585510015487671 0.801074385643005
vn -0.507475733757019 0.423613369464874 -0.750346720218658
vn -0.661240696907043 0.687658309936523 -0.299811065196991
vn -0.31729057431221 0.872126996517181 -0.372452855110168
vn -0.333929270505905 0.463462710380554 -0.820788383483887
vn -0.650560915470123 0.669101297855377 -0.359268546104431
vn -0.661240696907043 0.687658309936523 -0.299811065196991
vn -0.507475733757019 0.423613369464874 -0.750346720218658
vn -0.51990419626236 0.520502746105194 -0.677330493927002
vn 0.0854339972138405 -0.995601177215576 0.0384620353579521
vn 0.117399752140045 -0.965959370136261 -0.230520680546761
vn 0.0551852807402611 -0.95706844329834 -0.28456038236618
vn 0.0567924603819847 -0.997575879096985 -0.0402112677693367
vn -0.31729057431221 0.872126996517181 -0.372452855110168
vn -0.661240696907043 0.687658309936523 -0.299811065196991
vn -0.588177740573883 0.788658797740936 0.179064512252808
vn -0.216992691159248 0.96767246723175 0.128546237945557
vn 0.677236616611481 -0.275623589754105 -0.682189285755157
vn 0.389257401227951 -0.351632177829742 -0.85137152671814
vn 0.352721184492111 0.0311769284307957 -0.935208916664124
vn 0.350829303264618 0.58866935968399 -0.72827684879303
vn 0.280029386281967 0.854173302650452 -0.438145667314529
vn 0.52480673789978 0.850316286087036 -0.0392455607652664
vn 0.441427499055862 0.884800314903259 0.149231553077698
vn 0.736217617988586 0.673585116863251 0.0653196796774864
vn 0.816907167434692 -0.204672008752823 0.539232790470123
vn 0.616180658340454 -0.282309412956238 0.73527055978775
vn 0.587006747722626 -0.502421975135803 0.634819030761719
vn 0.530228316783905 -0.751670897006989 0.392235666513443
vn 0.496056348085403 -0.842874050140381 0.208545848727226
vn 0.477941244840622 -0.874240577220917 0.0852979049086571
vn 0.463576436042786 -0.88547956943512 -0.0319826826453209
vn 0.439033925533295 -0.861864387989044 -0.253848433494568
vn 0.411067187786102 -0.531023800373077 -0.74097067117691
vn 0.32097139954567 -0.0508935712277889 -0.945720434188843
vn 0.651636838912964 -0.0790023878216743 -0.754405677318573
vn -0.588177740573883 0.788658797740936 0.179064512252808
vn -0.661240696907043 0.687658309936523 -0.299811065196991
vn -0.650560915470123 0.669101297855377 -0.359268546104431
vn -0.669062316417694 0.742995619773865 0.0176921524107456
vn 0.45505827665329 0.886065661907196 0.0883727967739105
vn 0.559346258640289 0.723621010780334 0.404356688261032
vn 0.665783822536469 0.365736126899719 0.650360643863678
vn 0.718664228916168 0.0704107731580734 0.691783249378204
vn 0.71526163816452 -0.175636067986488 0.676426529884338
vn 0.816907167434692 -0.204672008752823 0.539232790470123
vn 0.651636838912964 -0.0790023878216743 -0.754405677318573
vn 0.677236616611481 -0.275623589754105 -0.682189285755157
vn 0.736217617988586 0.673585116863251 0.0653196796774864
vn 0.0551852807402611 -0.95706844329834 -0.28456038236618
vn 0.117399752140045 -0.965959370136261 -0.230520680546761
vn 0.0758105888962746 -0.620528340339661 -0.78051096200943
vn -0.00882774125784636 -0.561764717102051 -0.827250063419342
vn 0.012667728587985 -0.998997509479523 -0.0429348945617676
vn -0.0213758405297995 -0.957478702068329 -0.287710964679718
vn 0.439033925533295 -0.861864387989044 -0.253848433494568
vn 0.463576436042786 -0.88547956943512 -0.0319826826453209
vn 0.280029386281967 0.854173302650452 -0.438145667314529
vn -0.00445151701569557 0.904538333415985 -0.426369100809097
vn 0.0832172036170959 0.996317028999329 -0.0206707585602999
vn 0.52480673789978 0.850316286087036 -0.0392455607652664
vn -0.108031578361988 -0.566675901412964 -0.816827833652496
vn -0.0213758405297995 -0.957478702068329 -0.287710964679718
vn 0.0551852807402611 -0.95706844329834 -0.28456038236618
vn -0.00882774125784636 -0.561764717102051 -0.827250063419342
vn 0.439033925533295 -0.861864387989044 -0.253848433494568
vn -0.0213758405297995 -0.957478702068329 -0.287710964679718
vn -0.108031578361988 -0.566675901412964 -0.816827833652496
vn 0.411067187786102 -0.531023800373077 -0.74097067117691
vn -0.215911090373993 -0.956187129020691 -0.197708413004875
vn 0.117399752140045 -0.965959370136261 -0.230520680546761
vn 0.0854339972138405 -0.995601177215576 0.0384620353579521
vn -0.285144656896591 -0.921078562736511 0.265154242515564
vn 0.0758105888962746 -0.620528340339661 -0.78051096200943
vn 0.117399752140045 -0.965959370136261 -0.230520680546761
vn -0.215911090373993 -0.956187129020691 -0.197708413004875
vn -0.0915603265166283 -0.703480184078217 -0.704792439937592
vn -0.31729057431221 0.872126996517181 -0.372452855110168
vn -0.00445151701569557 0.904538333415985 -0.426369100809097
vn -0.14011238515377 0.622979581356049 -0.769587516784668
vn -0.333929270505905 0.463462710380554 -0.820788383483887
vn 0.0832172036170959 0.996317028999329 -0.0206707585602999
vn -0.00445151701569557 0.904538333415985 -0.426369100809097
vn -0.31729057431221 0.872126996517181 -0.372452855110168
vn -0.216992691159248 0.96767246723175 0.128546237945557
vn -0.786431312561035 -0.183939814567566 0.589654088020325
vn -0.742000639438629 -0.0436042062938213 0.668979644775391
vn -0.754918456077576 0.0186542551964521 0.655553460121155
vn -0.77211457490921 -0.0695573091506958 0.631665110588074
vn -0.363324075937271 -0.629237651824951 0.687062978744507
vn -0.742000639438629 -0.0436042062938213 0.668979644775391
vn -0.786431312561035 -0.183939814567566 0.589654088020325
vn -0.391834914684296 -0.768561363220215 0.505745828151703
vn -0.292190968990326 -0.288415461778641 -0.911833763122559
vn 0.00327834882773459 -0.0604545846581459 -0.998165607452393
vn 0.0758105888962746 -0.620528340339661 -0.78051096200943
vn -0.0915603265166283 -0.703480184078217 -0.704792439937592
vn 0.00722345896065235 -0.0485856756567955 -0.998792886734009
vn 0.00327834882773459 -0.0604545846581459 -0.998165607452393
vn -0.292190968990326 -0.288415461778641 -0.911833763122559
vn -0.359720557928085 -0.0709943622350693 -0.930355310440063
vn -0.386503934860229 0.0135948760434985 0.922187507152557
vn -0.0272563919425011 -0.164017543196678 0.986080765724182
vn -0.175526097416878 -0.336804687976837 0.925069391727448
vn -0.516707241535187 -0.0224595479667187 0.855867505073547
vn 0.0512164495885372 -0.50775808095932 0.85997599363327
vn -0.0272563919425011 -0.164017543196678 0.986080765724182
vn -0.386503934860229 0.0135948760434985 0.922187507152557
vn -0.204655289649963 -0.378034085035324 0.90288782119751
vn -0.386503934860229 0.0135948760434985 0.922187507152557
vn -0.742000639438629 -0.0436042062938213 0.668979644775391
vn -0.363324075937271 -0.629237651824951 0.687062978744507
vn -0.204655289649963 -0.378034085035324 0.90288782119751
vn -0.754918456077576 0.0186542551964521 0.655553460121155
vn -0.742000639438629 -0.0436042062938213 0.668979644775391
vn -0.386503934860229 0.0135948760434985 0.922187507152557
vn -0.516707241535187 -0.0224595479667187 0.855867505073547
vn 0.0758105888962746 -0.620528340339661 -0.78051096200943
vn 0.00327834882773459 -0.0604545846581459 -0.998165607452393
vn -0.0742565169930458 0.00783894583582878 -0.997208416461945
vn -0.00882774125784636 -0.561764717102051 -0.827250063419342
vn 0.816907167434692 -0.204672008752823 0.539232790470123
vn 0.289578527212143 -0.423402458429337 0.858414053916931
vn 0.202369123697281 -0.374085664749146 0.90504515171051
vn 0.616180658340454 -0.282309412956238 0.73527055978775
vn -0.292190968990326 -0.288415461778641 -0.911833763122559
vn -0.811864256858826 -0.520381212234497 -0.264726102352142
vn -0.930814027786255 -0.2130156904459 -0.297001004219055
vn -0.359720557928085 -0.0709943622350693 -0.930355310440063
vn 0.157629057765007 -0.613759338855743 0.773597180843353
vn 0.202369123697281 -0.374085664749146 0.90504515171051
vn 0.10522436350584 -0.353973656892776 0.92931717634201
vn 0.124330319464207 -0.585510015487671 0.801074385643005
vn 0.616180658340454 -0.282309412956238 0.73527055978775
vn 0.202369123697281 -0.374085664749146 0.90504515171051
vn 0.157629057765007 -0.613759338855743 0.773597180843353
vn 0.587006747722626 -0.502421975135803 0.634819030761719
vn -0.930814027786255 -0.2130156904459 -0.297001004219055
vn -0.811864256858826 -0.520381212234497 -0.264726102352142
vn -0.799709856510162 -0.436149299144745 0.412598967552185
vn -0.878045260906219 -0.235026970505714 0.416892021894455
vn -0.0742565169930458 0.00783894583582878 -0.997208416461945
vn 0.00327834882773459 -0.0604545846581459 -0.998165607452393
vn 0.00722345896065235 -0.0485856756567955 -0.998792886734009
vn -0.0645627528429031 -0.0789136439561844 -0.994788527488708
vn -0.215911090373993 -0.956187129020691 -0.197708413004875
vn -0.811864256858826 -0.520381212234497 -0.264726102352142
vn -0.292190968990326 -0.288415461778641 -0.911833763122559
vn -0.0915603265166283 -0.703480184078217 -0.704792439937592
vn -0.799709856510162 -0.436149299144745 0.412598967552185
vn -0.811864256858826 -0.520381212234497 -0.264726102352142
vn -0.215911090373993 -0.956187129020691 -0.197708413004875
vn -0.285144656896591 -0.921078562736511 0.265154242515564
vn -0.147746711969376 0.925537943840027 0.348640978336334
vn 0.113407142460346 0.973459005355835 0.198787212371826
vn 0.0832172036170959 0.996317028999329 -0.0206707585602999
vn -0.216992691159248 0.96767246723175 0.128546237945557
vn 0.0541155077517033 0.984410285949707 0.167355567216873
vn 0.113407142460346 0.973459005355835 0.198787212371826
vn -0.147746711969376 0.925537943840027 0.348640978336334
vn -0.19662681221962 0.926303684711456 0.321402043104172
vn 0.053291741758585 -0.967251241207123 0.248163282871246
vn 0.0930779278278351 -0.882500052452087 0.461009830236435
vn 0.0841935575008392 -0.879909634590149 0.467622131109238
vn 0.0560273490846157 -0.9635169506073 0.261717617511749
vn 0.52480673789978 0.850316286087036 -0.0392455607652664
vn 0.0832172036170959 0.996317028999329 -0.0206707585602999
vn 0.113407142460346 0.973459005355835 0.198787212371826
vn 0.441427499055862 0.884800314903259 0.149231553077698
vn 0.45505827665329 0.886065661907196 0.0883727967739105
vn -0.0663671940565109 0.986420691013336 0.150231465697289
vn 0.100066222250462 0.848979532718658 0.518864572048187
vn 0.559346258640289 0.723621010780334 0.404356688261032
vn 0.736217617988586 0.673585116863251 0.0653196796774864
vn 0.0541155077517033 0.984410285949707 0.167355567216873
vn -0.0663671940565109 0.986420691013336 0.150231465697289
vn 0.45505827665329 0.886065661907196 0.0883727967739105
vn -0.278139859437943 0.925572216510773 0.256815493106842
vn -0.0663671940565109 0.986420691013336 0.150231465697289
vn 0.0541155077517033 0.984410285949707 0.167355567216873
vn -0.19662681221962 0.926303684711456 0.321402043104172
vn 0.100066222250462 0.848979532718658 0.518864572048187
vn -0.0663671940565109 0.986420691013336 0.150231465697289
vn -0.278139859437943 0.925572216510773 0.256815493106842
vn -0.0434975139796734 0.765649676322937 0.641785383224487
vn 0.0841935575008392 -0.879909634590149 0.467622131109238
vn 0.0930779278278351 -0.882500052452087 0.461009830236435
vn 0.157629057765007 -0.613759338855743 0.773597180843353
vn 0.124330319464207 -0.585510015487671 0.801074385643005
vn 0.0509985610842705 -0.992428064346313 0.111739031970501
vn 0.0308575760573149 -0.994500458240509 0.100084044039249
vn 0.053291741758585 -0.967251241207123 0.248163282871246
vn 0.0560273490846157 -0.9635169506073 0.261717617511749
vn 0.012667728587985 -0.998997509479523 -0.0429348945617676
vn 0.0308575760573149 -0.994500458240509 0.100084044039249
vn 0.0509985610842705 -0.992428064346313 0.111739031970501
vn 0.0567924603819847 -0.997575879096985 -0.0402112677693367
vn 0.10522436350584 -0.353973656892776 0.92931717634201
vn -0.0272563919425011 -0.164017543196678 0.986080765724182
vn 0.0512164495885372 -0.50775808095932 0.85997599363327
vn 0.124330319464207 -0.585510015487671 0.801074385643005
vn -0.175526097416878 -0.336804687976837 0.925069391727448
vn -0.0272563919425011 -0.164017543196678 0.986080765724182
vn 0.10522436350584 -0.353973656892776 0.92931717634201
vn 0.104310251772404 -0.526102840900421 0.843999564647675
vn 0.530228316783905 -0.751670897006989 0.392235666513443
vn 0.0930779278278351 -0.882500052452087 0.461009830236435
vn 0.053291741758585 -0.967251241207123 0.248163282871246
vn 0.496056348085403 -0.842874050140381 0.208545848727226
vn 0.587006747722626 -0.502421975135803 0.634819030761719
vn 0.157629057765007 -0.613759338855743 0.773597180843353
vn 0.0930779278278351 -0.882500052452087 0.461009830236435
vn 0.530228316783905 -0.751670897006989 0.392235666513443
vn 0.477941244840622 -0.874240577220917 0.0852979049086571
vn 0.0308575760573149 -0.994500458240509 0.100084044039249
vn 0.012667728587985 -0.998997509479523 -0.0429348945617676
vn 0.463576436042786 -0.88547956943512 -0.0319826826453209
vn 0.496056348085403 -0.842874050140381 0.208545848727226
vn 0.053291741758585 -0.967251241207123 0.248163282871246
vn 0.0308575760573149 -0.994500458240509 0.100084044039249
vn 0.477941244840622 -0.874240577220917 0.0852979049086571
usemtl 833038GreenStone
f 66/1/1 98/2/2 99/3/3 68/4/4
f 93/5/5 98/6/6 66/7/7 64/8/8
f 101/9/9 100/10/10 103/11/11 102/12/12
f 99/13/13 98/14/14 95/15/15 96/16/16
f 33/17/17 94/18/18 88/19/19 32/20/20
f 97/21/21 94/22/22 33/23/23 34/24/24
f 95/25/25 98/26/26 93/27/27 87/28/28
f 88/29/29 94/30/30 95/31/31 87/32/32
f 103/33/33 100/34/34 7/35/35 8/36/36
f 108/37/37 106/38/38 101/39/39 102/40/40
f 70/41/41 106/42/42 108/43/43 74/44/44
f 104/45/45 109/46/46 5/47/47 6/48/48
f 110/49/49 109/50/50 104/51/51 105/52/52
f 104/53/53 100/54/54 101/55/55 105/56/56
f 7/57/57 100/58/58 104/59/59 6/60/60
f 107/61/61 106/62/62 70/63/63 71/64/64
f 101/65/65 106/66/66 107/67/67 105/68/68
f 67/69/69 83/70/70 49/71/71 40/72/72
f 84/73/73 83/74/74 67/75/75 68/76/76
f 78/77/77 83/78/78 84/79/79 77/80/80
f 49/81/81 83/82/82 78/83/83 19/84/84
f 73/85/85 81/86/86 25/87/87 15/88/88
f 82/89/89 81/90/90 73/91/91 74/92/92
f 138/93/93 81/94/94 82/95/95 141/96/96
f 81/97/97 138/98/98 139/99/99 25/100/100
f 86/101/101 85/102/102 88/103/103 87/104/104
f 60/105/105 91/106/106 93/107/107 64/108/108
f 92/109/109 91/110/110 60/111/111 61/112/112
f 95/113/113 94/114/114 97/115/115 96/116/116
f 93/117/117 91/118/118 86/119/119 87/120/120
f 31/121/121 85/122/122 89/123/123 30/124/124
f 88/125/125 85/126/126 31/127/127 32/128/128
f 86/129/129 91/130/130 92/131/131 90/132/132
f 89/133/133 85/134/134 86/135/135 90/136/136
f 122/137/137 121/138/138 111/139/139 112/140/140
f 142/141/141 120/142/142 118/143/143 143/144/144
f 36/145/145 121/146/146 97/147/147 34/148/148
f 111/149/149 121/150/150 36/151/151 4/152/152
f 118/153/153 120/154/154 108/155/155 102/156/156
f 103/157/157 119/158/158 118/159/159 102/160/160
f 141/161/161 82/162/162 120/163/163 142/164/164
f 108/165/165 120/166/166 82/167/167 74/168/168
f 97/169/169 121/170/170 122/171/171 96/172/172
f 126/173/173 22/174/174 20/175/175
f 22/176/176 126/177/177 125/178/178
f 50/179/179 54/180/180 53/181/181
f 54/182/182 50/183/183 127/184/184
f 99/185/185 123/186/186 84/187/187 68/188/188
f 122/189/189 123/190/190 99/191/191 96/192/192
f 114/193/193 123/194/194 122/195/195 112/196/196
f 84/197/197 123/198/198 114/199/199 77/200/200
f 107/201/201 113/202/202 110/203/203 105/204/204
f 76/205/205 113/206/206 107/207/207 71/208/208
f 89/209/209 115/210/210 52/211/211 30/212/212
f 116/213/213 115/214/214 89/215/215 90/216/216
f 111/217/217 109/218/218 110/219/219 112/220/220
f 5/221/221 109/222/222 111/223/223 4/224/224
f 114/225/225 113/226/226 76/227/227 77/228/228
f 110/229/229 113/230/230 114/231/231 112/232/232
f 1/233/233 52/234/234 115/235/235 129/236/236
f 143/237/237 118/238/238 119/239/239 144/240/240
f 92/241/241 117/242/242 116/243/243 90/244/244
f 22/245/245 119/246/246 103/247/247 8/248/248
f 144/249/249 119/250/250 22/251/251 125/252/252
f 145/253/253 116/254/254 117/255/255 130/256/256
f 145/257/257 129/258/258 115/259/259 116/260/260
f 79/261/261 117/262/262 92/263/263 61/264/264
f 130/265/265 117/266/266 79/267/267 131/268/268
f 62/269/269 80/270/270 79/271/271 61/272/272
f 27/273/273 35/274/274 36/275/275 34/276/276
f 33/277/277 26/278/278 27/279/279 34/280/280
f 3/281/281 35/282/282 37/283/283 10/284/284
f 36/285/285 35/286/286 3/287/287 4/288/288
f 27/289/289 26/290/290 29/291/291 28/292/292
f 14/293/293 23/294/294 24/295/295 13/296/296
f 31/297/297 26/298/298 33/299/299 32/300/300
f 29/301/301 26/302/302 31/303/303 30/304/304
f 37/305/305 35/306/306 27/307/307 28/308/308
f 48/309/309 47/310/310 12/311/311 13/312/312
f 39/313/313 47/314/314 48/315/315 46/316/316
f 49/317/317 47/318/318 39/319/319 40/320/320
f 12/321/321 47/322/322 49/323/323 19/324/324
f 41/325/325 38/326/326 43/327/327 42/328/328
f 39/329/329 38/330/330 41/331/331 40/332/332
f 45/333/333 38/334/334 39/335/335 46/336/336
f 43/337/337 38/338/338 45/339/339 44/340/340
f 7/341/341 2/342/342 9/343/343 8/344/344
f 5/345/345 2/346/346 7/347/347 6/348/348
f 12/349/349 11/350/350 14/351/351 13/352/352
f 9/353/353 2/354/354 3/355/355 10/356/356
f 142/357/357 143/358/358 144/359/359 125/360/360 126/361/361 124/362/362 54/363/363 127/364/364
f 131/365/365 132/366/366 133/367/367 135/368/368 134/369/369 136/370/370 137/371/371 140/372/372 139/373/373 138/374/374 141/375/375
f 3/376/376 2/377/377 5/378/378 4/379/379
f 128/380/380 1/381/381 129/382/382 145/383/383 130/384/384 131/385/385 141/386/386 142/387/387 127/388/388
f 14/389/389 11/390/390 16/391/391 15/392/392
f 24/393/393 23/394/394 140/395/395 137/396/396
f 126/397/397 20/398/398 21/399/399 124/400/400
f 25/401/401 23/402/402 14/403/403 15/404/404
f 140/405/405 23/406/406 25/407/407 139/408/408
f 18/409/409 11/410/410 12/411/411 19/412/412
f 16/413/413 11/414/414 18/415/415 17/416/416
f 9/417/417 20/418/418 22/419/419 8/420/420
f 21/421/421 20/422/422 9/423/423 10/424/424
f 67/425/425 65/426/426 66/427/427 68/428/428
f 41/429/429 65/430/430 67/431/431 40/432/432
f 72/433/433 69/434/434 16/435/435 17/436/436
f 70/437/437 69/438/438 72/439/439 71/440/440
f 63/441/441 59/442/442 60/443/443 64/444/444
f 43/445/445 59/446/446 63/447/447 42/448/448
f 63/449/449 65/450/450 41/451/451 42/452/452
f 66/453/453 65/454/454 63/455/455 64/456/456
f 16/457/457 69/458/458 73/459/459 15/460/460
f 131/461/461 79/462/462 80/463/463 132/464/464
f 72/465/465 75/466/466 76/467/467 71/468/468
f 57/469/469 80/470/470 62/471/471 44/472/472
f 132/473/473 80/474/474 57/475/475 133/476/476
f 76/477/477 75/478/478 78/479/479 77/480/480
f 73/481/481 69/482/482 70/483/483 74/484/484
f 18/485/485 75/486/486 72/487/487 17/488/488
f 78/489/489 75/490/490 18/491/491 19/492/492
f 37/493/493 53/494/494 21/495/495 10/496/496
f 50/497/497 53/498/498 37/499/499 28/500/500
f 56/501/501 55/502/502 45/503/503 46/504/504
f 124/505/505 21/506/506 53/507/507 54/508/508
f 128/509/509 51/510/510 52/511/511 1/512/512
f 127/513/513 50/514/514 51/515/515 128/516/516
f 29/517/517 51/518/518 50/519/519 28/520/520
f 52/521/521 51/522/522 29/523/523 30/524/524
f 45/525/525 55/526/526 57/527/527 44/528/528
f 48/529/529 58/530/530 56/531/531 46/532/532
f 24/533/533 58/534/534 48/535/535 13/536/536
f 62/537/537 59/538/538 43/539/539 44/540/540
f 60/541/541 59/542/542 62/543/543 61/544/544
f 135/545/545 55/546/546 56/547/547 134/548/548
f 133/549/549 57/550/550 55/551/551 135/552/552
f 136/553/553 58/554/554 24/555/555 137/556/556
f 134/557/557 56/558/558 58/559/559 136/560/560
